# xmcd CD database file
#
# Track frame offsets:
#	150
#	19355
#	35775
#	56710
#	70458
#	89537
#	109263
#	125328
#	151138
#	165107
#	185063
#	206908
#
# Disc length: 3043 seconds
#
# Revision: 1
# Processed by: cddbd v1.5.2PL0 Copyright (c) Steve Scherf et al.
# Submitted via: CDex 1.91
#
DISCID=ad0be10c
DTITLE=ema lou harris - all the road running
DYEAR=2006
DGENRE=Country
TTITLE0=all the road running
TTITLE1=all the road running
TTITLE2=all the road running
TTITLE3=all the road running
TTITLE4=all the road running
TTITLE5=all the road running
TTITLE6=all the road running
TTITLE7=all the road running
TTITLE8=all the road running
TTITLE9=all the road running
TTITLE10=all the road running
TTITLE11=all the road running
EXTD=YEAR: 2006
EXTT0=
EXTT1=
EXTT2=
EXTT3=
EXTT4=
EXTT5=
EXTT6=
EXTT7=
EXTT8=
EXTT9=
EXTT10=
EXTT11=
PLAYORDER=
